<?xml version="1.0" encoding="UTF-8" standalone="no"?>
<!DOCTYPE svg PUBLIC "-//W3C//DTD SVG 1.1//EN" "http://www.w3.org/Graphics/SVG/1.1/DTD/svg11.dtd">
<svg xmlns="http://www.w3.org/2000/svg" version="1.1" viewBox="0.00 0.00 151.00 167.00">
<path fill="#ffffff" d="
  M 61.55 0.00
  L 67.96 0.00
  Q 78.41 8.99 88.87 17.88
  C 91.77 20.35 91.27 24.57 88.50 26.92
  Q 78.47 35.39 69.20 43.43
  C 62.91 48.89 55.54 40.24 61.24 35.17
  Q 64.46 32.30 68.12 29.22
  Q 69.17 28.34 67.82 28.54
  C 47.36 31.59 29.58 43.77 20.13 62.14
  C 6.87 87.92 12.32 118.50 33.49 138.23
  C 55.93 159.15 91.47 160.62 115.49 141.55
  C 142.77 119.90 148.34 80.16 126.55 52.56
  C 124.62 50.10 124.43 46.99 126.70 44.65
  C 128.95 42.34 133.13 42.34 135.07 44.70
  Q 147.89 60.22 151.00 82.16
  L 151.00 100.48
  Q 146.22 132.43 121.92 151.04
  C 88.83 176.40 42.09 169.68 16.98 137.08
  C -6.63 106.42 -3.12 62.35 26.33 35.74
  Q 44.11 19.68 69.02 16.84
  Q 69.79 16.75 69.21 16.24
  Q 65.89 13.26 62.37 10.39
  C 58.68 7.39 57.52 3.60 61.55 0.00
  Z"
/>
<path fill="#ffffff" d="
  M 99.06 0.00
  L 105.48 0.00
  Q 115.91 9.02 126.38 17.87
  C 129.30 20.34 128.73 24.59 126.02 26.89
  Q 115.73 35.62 106.04 43.99
  C 100.58 48.70 92.66 40.47 99.10 34.84
  Q 105.45 29.29 113.49 22.50
  A 0.33 0.33 0.0 0 0 113.49 22.00
  Q 106.35 15.92 98.86 9.46
  C 95.68 6.71 95.76 2.79 99.06 0.00
  Z"
/>
<path fill="#ffffff" d="
  M 47.00 76.52
  Q 42.59 78.08 40.00 74.46
  C 37.51 70.98 39.58 67.52 42.96 65.45
  Q 45.89 63.66 48.54 61.72
  C 51.90 59.27 56.33 58.68 58.36 62.79
  Q 59.08 64.25 59.08 66.04
  Q 59.07 88.21 59.01 113.57
  Q 59.00 114.72 60.14 114.57
  Q 64.19 114.06 66.36 116.57
  C 68.62 119.18 68.11 123.47 65.03 125.19
  C 62.84 126.41 60.43 126.08 57.94 126.10
  Q 52.44 126.13 46.02 126.14
  C 42.90 126.14 40.17 125.20 39.23 121.94
  C 38.10 117.99 40.93 114.72 44.87 114.52
  Q 45.98 114.46 47.04 114.53
  Q 47.67 114.58 47.67 113.95
  L 47.68 77.00
  Q 47.68 76.28 47.00 76.52
  Z"
/>
<path fill="#ffffff" d="
  M 113.89 111.56
  A 14.55 14.55 0.0 0 1 99.34 126.11
  L 90.94 126.11
  A 14.55 14.55 0.0 0 1 76.39 111.56
  L 76.39 74.30
  A 14.55 14.55 0.0 0 1 90.94 59.75
  L 99.34 59.75
  A 14.55 14.55 0.0 0 1 113.89 74.30
  L 113.89 111.56
  Z
  M 102.38 73.96
  A 2.70 2.70 0.0 0 0 99.68 71.26
  L 90.70 71.26
  A 2.70 2.70 0.0 0 0 88.00 73.96
  L 88.00 111.80
  A 2.70 2.70 0.0 0 0 90.70 114.50
  L 99.68 114.50
  A 2.70 2.70 0.0 0 0 102.38 111.80
  L 102.38 73.96
  Z"
/>
</svg>
