<?xml version="1.0" encoding="UTF-8" standalone="no"?>
<!DOCTYPE svg PUBLIC "-//W3C//DTD SVG 1.1//EN" "http://www.w3.org/Graphics/SVG/1.1/DTD/svg11.dtd">
<svg xmlns="http://www.w3.org/2000/svg" version="1.1" viewBox="0.00 0.00 151.00 169.00">
<path fill="#ffffff" d="
  M 39.76 23.27
  Q 39.08 23.84 39.75 24.42
  Q 45.84 29.63 52.08 34.88
  Q 55.23 37.53 55.93 39.25
  C 58.25 44.99 51.27 49.46 46.40 45.26
  Q 35.40 35.78 27.02 28.61
  C 23.58 25.67 23.83 21.78 27.04 19.06
  Q 36.96 10.64 46.50 2.41
  C 52.34 -2.63 60.03 5.87 53.88 11.19
  Q 47.04 17.12 39.76 23.27
  Z"
/>
<path fill="#ffffff" d="
  M 151.00 83.68
  L 151.00 102.26
  Q 144.95 141.53 111.15 159.66
  Q 95.20 168.22 74.62 168.04
  C 44.45 167.78 16.17 147.36 6.06 118.96
  Q -3.99 90.73 7.70 63.06
  Q 10.95 55.37 17.13 47.13
  C 22.17 40.41 31.43 47.39 26.44 53.93
  C 11.39 73.64 8.40 99.83 20.02 122.18
  C 37.71 156.19 80.30 166.82 111.90 145.73
  C 142.18 125.52 148.94 83.71 127.04 54.87
  Q 111.26 34.09 85.05 30.23
  Q 84.06 30.08 84.79 30.77
  Q 87.62 33.43 90.89 36.00
  C 98.13 41.69 90.33 50.85 84.04 45.40
  Q 73.94 36.64 64.24 28.36
  C 61.37 25.91 61.32 21.84 64.15 19.43
  Q 74.21 10.86 83.78 2.59
  C 86.37 0.35 89.79 0.25 92.20 2.92
  C 95.09 6.12 93.29 9.79 90.30 12.21
  Q 86.65 15.17 83.40 18.06
  A 0.20 0.20 0.0 0 0 83.51 18.40
  Q 114.73 21.94 134.68 45.82
  Q 147.77 61.48 151.00 83.68
  Z"
/>
<path fill="#ffffff" d="
  M 46.99 78.25
  C 39.62 80.42 35.78 71.38 42.34 67.51
  C 46.44 65.09 53.83 57.50 58.20 64.03
  Q 59.08 65.34 59.07 66.89
  Q 59.03 92.02 59.06 115.60
  Q 59.06 116.32 59.78 116.24
  C 70.00 115.01 70.58 127.99 60.47 127.81
  Q 53.01 127.67 45.64 127.78
  C 36.15 127.93 37.20 114.84 46.43 116.26
  Q 47.67 116.45 47.67 115.19
  L 47.69 78.77
  Q 47.69 78.05 46.99 78.25
  Z"
/>
<path fill="#ffffff" d="
  M 113.98 113.22
  A 14.50 14.50 0.0 0 1 99.48 127.72
  L 90.98 127.72
  A 14.50 14.50 0.0 0 1 76.48 113.22
  L 76.48 75.88
  A 14.50 14.50 0.0 0 1 90.98 61.38
  L 99.48 61.38
  A 14.50 14.50 0.0 0 1 113.98 75.88
  L 113.98 113.22
  Z
  M 102.38 75.62
  A 2.76 2.76 0.0 0 0 99.62 72.86
  L 90.76 72.86
  A 2.76 2.76 0.0 0 0 88.00 75.62
  L 88.00 113.40
  A 2.76 2.76 0.0 0 0 90.76 116.16
  L 99.62 116.16
  A 2.76 2.76 0.0 0 0 102.38 113.40
  L 102.38 75.62
  Z"
/>
</svg>
