<?xml version="1.0" encoding="UTF-8" standalone="no"?>
<!DOCTYPE svg PUBLIC "-//W3C//DTD SVG 1.1//EN" "http://www.w3.org/Graphics/SVG/1.1/DTD/svg11.dtd">
<svg xmlns="http://www.w3.org/2000/svg" version="1.1" viewBox="0.00 0.00 32.00 32.00">
<path fill="#fffffe" d="
  M 24.20 8.10
  Q 19.00 3.39 12.83 5.14
  C 2.10 8.18 2.11 23.08 12.28 26.63
  C 20.27 29.41 27.17 23.56 27.43 15.29
  A 0.53 0.53 0.0 0 1 27.97 14.78
  L 28.37 14.79
  Q 29.36 14.82 29.31 15.80
  Q 28.89 24.54 21.52 28.01
  C 9.55 33.65 -2.25 19.87 4.85 8.87
  C 9.77 1.25 20.05 0.65 26.17 7.44
  A 0.30 0.30 0.0 0 0 26.69 7.26
  Q 26.78 6.00 27.97 6.10
  Q 28.71 6.15 28.60 6.89
  L 28.02 10.77
  A 0.68 0.68 0.0 0 1 27.22 11.34
  L 23.49 10.66
  Q 22.71 10.52 22.85 9.74
  Q 23.01 8.84 23.99 8.74
  Q 24.81 8.66 24.20 8.10
  Z"
/>
<path fill="#fffffe" d="
  M 21.25 17.80
  A 2.72 2.72 0.0 0 1 18.53 20.52
  L 18.13 20.52
  A 2.72 2.72 0.0 0 1 15.41 17.80
  L 15.41 14.16
  A 2.72 2.72 0.0 0 1 18.13 11.44
  L 18.53 11.44
  A 2.72 2.72 0.0 0 1 21.25 14.16
  L 21.25 17.80
  Z
  M 19.70 14.29
  A 1.27 1.27 0.0 0 0 18.43 13.02
  L 18.27 13.02
  A 1.27 1.27 0.0 0 0 17.00 14.29
  L 17.00 17.71
  A 1.27 1.27 0.0 0 0 18.27 18.98
  L 18.43 18.98
  A 1.27 1.27 0.0 0 0 19.70 17.71
  L 19.70 14.29
  Z"
/>
<path fill="#fffffe" d="
  M 11.64 13.48
  Q 10.95 13.69 10.48 13.21
  A 0.53 0.53 0.0 0 1 10.54 12.41
  Q 11.91 11.43 13.31 11.50
  Q 13.99 11.53 13.99 12.21
  L 13.96 20.05
  Q 13.95 20.42 13.58 20.45
  L 13.06 20.50
  A 0.70 0.69 -2.6 0 1 12.30 19.81
  L 12.31 13.99
  A 0.53 0.52 -7.5 0 0 11.64 13.48
  Z"
/>
</svg>
