<?xml version="1.0" encoding="UTF-8"?>
<svg version="1.1" xmlns="http://www.w3.org/2000/svg" width="512" height="480">
<path d="M0 0 C1.61841797 0.80244141 1.61841797 0.80244141 3.26953125 1.62109375 C34.59867593 17.71305062 57.49494017 46.60376876 68.35498047 79.83154297 C71.32877606 89.82898901 73.63365012 100.5590284 74 111 C74.07734375 112.91039062 74.07734375 112.91039062 74.15625 114.859375 C74.79992209 138.64052144 69.77055384 160.8685107 59 182 C58.51660156 182.97582031 58.03320312 183.95164062 57.53515625 184.95703125 C53.22460385 193.30350252 47.56597161 200.55466465 41.703125 207.86328125 C30.0856727 222.66551788 22.77936349 239.56015227 21.640625 258.484375 C21.54394531 260.01191406 21.54394531 260.01191406 21.4453125 261.5703125 C21.31611594 263.67363248 21.20129699 265.77788976 21.1015625 267.8828125 C20.5657098 275.7618319 18.95851786 283.42802083 12.86230469 288.92895508 C10.44881003 291.61297122 10.51491802 293.0534312 10.53125 296.62109375 C10.5144519 298.26295654 10.5144519 298.26295654 10.49731445 299.93798828 C10.49820068 301.09282715 10.49908691 302.24766602 10.5 303.4375 C10.21282181 318.13900786 8.63079317 328.95998818 -1.8125 339.8984375 C-9.83962672 347.56952231 -19.26286298 350.0921973 -30.15429688 350.17700195 C-30.85590942 350.18357315 -31.55752197 350.19014435 -32.28039551 350.19691467 C-34.59318167 350.2165563 -36.90590296 350.22829382 -39.21875 350.23828125 C-40.0143483 350.24235678 -40.80994659 350.2464323 -41.62965393 350.25063133 C-45.84619889 350.27145975 -50.06271168 350.28577172 -54.27929688 350.29516602 C-58.60181511 350.3061846 -62.92381207 350.34054049 -67.24614716 350.38033772 C-70.5973801 350.40668391 -73.94849259 350.41487397 -77.29981995 350.41844749 C-78.8911946 350.42327225 -80.48256541 350.43476645 -82.07383728 350.45348549 C-96.78867112 350.61573657 -108.97085116 348.62042194 -119.8984375 338.1875 C-127.14702532 330.60247983 -130.12106791 321.44950302 -130.10546875 311.0703125 C-130.12029297 309.94496094 -130.13511719 308.81960938 -130.15039062 307.66015625 C-130.1750469 305.31132155 -130.1803861 302.9622014 -130.16601562 300.61328125 C-130.29103402 293.98351797 -130.70262102 290.21597587 -135.49707031 285.51538086 C-140.93062741 280.03680891 -140.568168 272.24960348 -140.9375 265.0625 C-142.38805693 243.21853936 -148.39218495 223.05529853 -162.875 206.125 C-185.22622207 179.98658146 -196.46154774 145.31183504 -194 111 C-191.46147638 82.51940269 -181.91478974 55.76847175 -163 34 C-162.30261719 33.18144531 -161.60523438 32.36289063 -160.88671875 31.51953125 C-138.32961256 5.6770206 -106.24260453 -11.20955606 -71.8125 -13.87109375 C-46.62258009 -15.02563175 -22.62458507 -11.55358359 0 0 Z M-129 46 C-129.67417969 46.57105469 -130.34835938 47.14210938 -131.04296875 47.73046875 C-149.60711935 64.88356752 -159.83065259 90.7943344 -161.203125 115.68359375 C-161.52621488 141.55770797 -153.66481773 165.12698206 -137 185 C-117.9502324 208.26503532 -109.98089539 234.28656911 -108 264 C-76.32 264 -44.64 264 -12 264 C-11.34 257.07 -10.68 250.14 -10 243 C-4.8461393 219.88125345 4.42902738 201.55559135 19 183 C35.26690495 161.9194191 43.81581191 135.29361821 40.5 108.64453125 C37.64960929 88.52120474 30.50427626 70.33405415 17 55 C15.98679687 53.77216797 15.98679687 53.77216797 14.953125 52.51953125 C-2.31771362 32.19162813 -27.69718411 21.01114691 -54.03564453 18.83154297 C-82.2273648 17.1861654 -107.87388764 27.94279112 -129 46 Z M-97 296 C-97 301.61 -97 307.22 -97 313 C-92.60968736 317.39031264 -92.3061536 317.50167263 -86.55078125 317.51757812 C-85.24262451 317.53018677 -83.93446777 317.54279541 -82.58666992 317.55578613 C-81.16194113 317.54862633 -79.73721726 317.54042234 -78.3125 317.53125 C-76.84806053 317.53394549 -75.38362281 317.53782838 -73.91918945 317.54284668 C-70.8525282 317.54873919 -67.78633351 317.54018746 -64.71972656 317.52148438 C-60.79186364 317.4986941 -56.86509394 317.51181863 -52.93727112 317.53577423 C-49.91401963 317.55023941 -46.89102667 317.54562311 -43.86776733 317.53526306 C-42.41970693 317.53259772 -40.97162294 317.53585882 -39.52359009 317.54518127 C-37.4988043 317.55535659 -35.47393606 317.53709332 -33.44921875 317.51757812 C-32.29768311 317.51439575 -31.14614746 317.51121338 -29.9597168 317.50793457 C-26.42468065 317.19443547 -26.42468065 317.19443547 -23 313 C-23 307.39 -23 301.78 -23 296 C-47.42 296 -71.84 296 -97 296 Z " fill="#FFFFFF" transform="translate(316,136)"/>
<path d="M0 0 C0.83829346 0.01353516 1.67658691 0.02707031 2.5402832 0.04101562 C20.18337686 0.6177736 36.79209116 8.00809956 50.0625 19.5 C50.85527344 20.09683594 51.64804687 20.69367188 52.46484375 21.30859375 C66.19845931 32.89439574 75.64158111 52.13728616 77.28564453 69.91259766 C77.44190335 72.46515151 77.52339336 75.00556543 77.5625 77.5625 C77.58111084 78.36010742 77.59972168 79.15771484 77.61889648 79.97949219 C77.56109045 85.27968794 76.52361071 88.28177132 73.0625 92.5 C69.24319828 96.12833663 66.17970994 96.81000458 61.0625 97 C55.94529006 96.81000458 52.88180172 96.12833663 49.0625 92.5 C45.06593594 87.51943343 44.2719246 83.38422264 43.5625 77.25 C41.55522811 62.81139083 36.60599342 52.57996731 25.23828125 43.06640625 C16.6240528 36.86478038 7.43586326 34.27031559 -3.015625 33.46484375 C-9.27979426 32.83125411 -13.03283812 30.50490725 -17.3125 26 C-19.71053575 20.83499991 -19.69131535 16.0997712 -18.9375 10.5 C-15.02596639 2.07515838 -8.68931022 -0.20360771 0 0 Z " fill="#FFFFFF" transform="translate(258.9375,175.5)"/>
<path d="M0 0 C3.72026774 1.87623892 6.34905978 4.49062699 8.20703125 8.22265625 C9.54232535 12.52088105 9.71940006 16.94246925 8.8671875 21.34765625 C5.82460793 26.53300958 1.95114231 30.58532233 -2.27734375 34.828125 C-2.96535568 35.52279373 -3.65336761 36.21746246 -4.36222839 36.93318176 C-5.81282712 38.39386515 -7.26611281 39.8518845 -8.72192383 41.30737305 C-10.93835198 43.52818197 -13.13828152 45.76450023 -15.33789062 48.00195312 C-16.75422599 49.42415605 -18.17151258 50.84541244 -19.58984375 52.265625 C-20.24112747 52.93127975 -20.89241119 53.59693451 -21.56343079 54.28276062 C-26.44252137 59.11398588 -30.59461934 61.89734076 -37.5703125 62.78515625 C-43.63703644 62.04011998 -47.74312685 60.09367155 -51.5703125 55.28515625 C-53.99125896 50.73377691 -54.55404772 47.48672595 -54.1328125 42.34765625 C-51.83447466 35.75755322 -47.56638132 31.21798268 -42.6640625 26.41796875 C-41.588078 25.34335892 -41.588078 25.34335892 -40.49035645 24.24703979 C-38.98219281 22.74488503 -37.46920459 21.24756006 -35.95166016 19.75488281 C-33.62925467 17.4691546 -31.32341859 15.16765889 -29.01953125 12.86328125 C-27.54781785 11.40139395 -26.07519283 9.9404237 -24.6015625 8.48046875 C-23.91292114 7.79405304 -23.22427979 7.10763733 -22.51477051 6.40042114 C-21.86729858 5.76570892 -21.21982666 5.1309967 -20.55273438 4.47705078 C-19.70479309 3.64054489 -19.70479309 3.64054489 -18.83972168 2.78713989 C-13.51757298 -1.70117506 -6.53603839 -1.99911797 0 0 Z " fill="#FFFFFF" transform="translate(414.1328125,89.65234375)"/>
<path d="M0 0 C5.18535333 3.04257957 9.23766608 6.91604519 13.48046875 11.14453125 C14.52247185 12.17654915 14.52247185 12.17654915 15.58552551 13.22941589 C17.0462089 14.68001462 18.50422825 16.13330031 19.9597168 17.58911133 C22.18052572 19.80553948 24.41684398 22.00546902 26.65429688 24.20507812 C28.0764998 25.62141349 29.49775619 27.03870008 30.91796875 28.45703125 C31.5836235 29.10831497 32.24927826 29.75959869 32.93510437 30.43061829 C37.76632963 35.30970887 40.54968451 39.46180684 41.4375 46.4375 C40.69246373 52.50422394 38.7460153 56.61031435 33.9375 60.4375 C29.38612066 62.85844646 26.1390697 63.42123522 21 63 C14.40989697 60.70166216 9.87032643 56.43356882 5.0703125 51.53125 C4.35390594 50.813927 3.63749939 50.096604 2.89938354 49.35754395 C1.39722878 47.84938031 -0.10009619 46.33639209 -1.59277344 44.81884766 C-3.87850165 42.49644217 -6.17999736 40.19060609 -8.484375 37.88671875 C-9.9462623 36.41500535 -11.40723255 34.94238033 -12.8671875 33.46875 C-13.55360321 32.78010864 -14.24001892 32.09146729 -14.94723511 31.38195801 C-15.58194733 30.73448608 -16.21665955 30.08701416 -16.87060547 29.41992188 C-17.42827606 28.85462769 -17.98594666 28.2893335 -18.56051636 27.70690918 C-22.2678286 23.31085693 -22.43518326 19.34264363 -22.30859375 13.7578125 C-21.82525409 9.43834664 -20.72579964 7.42472262 -18 4 C-12.55483181 -0.33390937 -6.86995971 -1.32903915 0 0 Z " fill="#FFFFFF" transform="translate(111,89)"/>
<path d="M0 0 C1.59229179 -0.01925285 1.59229179 -0.01925285 3.2167511 -0.03889465 C4.93706795 -0.04997505 4.93706795 -0.04997505 6.69213867 -0.0612793 C8.46230598 -0.07338692 8.46230598 -0.07338692 10.26823425 -0.08573914 C12.76734956 -0.09957719 15.26648375 -0.11030059 17.765625 -0.11816406 C21.58459301 -0.13538301 25.40269681 -0.17927417 29.22143555 -0.22338867 C31.64916356 -0.2335151 34.07689892 -0.24203136 36.50463867 -0.2487793 C37.64544388 -0.26628738 38.78624908 -0.28379547 39.96162415 -0.30183411 C46.23061158 -0.28470935 50.05846581 -0.07814636 54.79760742 4.17700195 C58.8790286 8.69965786 60.12125278 11.96846548 60.00854492 18.12231445 C59.51904994 22.89035812 57.26579785 25.96812873 53.73510742 28.98950195 C49.94889328 31.80902313 48.33929718 32.30534269 43.70874023 32.35400391 C42.64713684 32.36683914 41.58553345 32.37967438 40.49176025 32.39289856 C39.33972107 32.40028549 38.18768188 32.40767242 37.00073242 32.4152832 C35.22844269 32.42739082 35.22844269 32.42739082 33.42034912 32.43974304 C30.91525749 32.45359366 28.4101469 32.46431142 25.9050293 32.47216797 C22.07719021 32.48936902 18.25021718 32.53324682 14.42260742 32.57739258 C11.99032212 32.58752025 9.55802946 32.59603612 7.12573242 32.6027832 C5.40981903 32.62904533 5.40981903 32.62904533 3.65924072 32.65583801 C-2.61711927 32.63874463 -6.45885285 32.44004121 -11.20239258 28.17700195 C-15.28594074 23.65198912 -16.51868676 20.38634906 -16.41723633 14.23168945 C-15.82205254 8.53956814 -12.35207353 4.80797279 -8.20239258 1.17700195 C-5.19783639 0.17548322 -3.14211102 0.03309802 0 0 Z " fill="#FFFFFF" transform="translate(426.202392578125,239.822998046875)"/>
<path d="M0 0 C1.59229179 -0.01925285 1.59229179 -0.01925285 3.2167511 -0.03889465 C4.93706795 -0.04997505 4.93706795 -0.04997505 6.69213867 -0.0612793 C8.46230598 -0.07338692 8.46230598 -0.07338692 10.26823425 -0.08573914 C12.76734956 -0.09957719 15.26648375 -0.11030059 17.765625 -0.11816406 C21.58459301 -0.13538301 25.40269681 -0.17927417 29.22143555 -0.22338867 C31.64916356 -0.2335151 34.07689892 -0.24203136 36.50463867 -0.2487793 C37.64544388 -0.26628738 38.78624908 -0.28379547 39.96162415 -0.30183411 C46.23061158 -0.28470935 50.05846581 -0.07814636 54.79760742 4.17700195 C58.8790286 8.69965786 60.12125278 11.96846548 60.00854492 18.12231445 C59.51904994 22.89035812 57.26579785 25.96812873 53.73510742 28.98950195 C49.94889328 31.80902313 48.33929718 32.30534269 43.70874023 32.35400391 C42.64713684 32.36683914 41.58553345 32.37967438 40.49176025 32.39289856 C39.33972107 32.40028549 38.18768188 32.40767242 37.00073242 32.4152832 C35.22844269 32.42739082 35.22844269 32.42739082 33.42034912 32.43974304 C30.91525749 32.45359366 28.4101469 32.46431142 25.9050293 32.47216797 C22.07719021 32.48936902 18.25021718 32.53324682 14.42260742 32.57739258 C11.99032212 32.58752025 9.55802946 32.59603612 7.12573242 32.6027832 C5.40981903 32.62904533 5.40981903 32.62904533 3.65924072 32.65583801 C-2.61711927 32.63874463 -6.45885285 32.44004121 -11.20239258 28.17700195 C-15.28594074 23.65198912 -16.51868676 20.38634906 -16.41723633 14.23168945 C-15.82205254 8.53956814 -12.35207353 4.80797279 -8.20239258 1.17700195 C-5.19783639 0.17548322 -3.14211102 0.03309802 0 0 Z " fill="#FFFFFF" transform="translate(42.202392578125,239.822998046875)"/>
<path d="M0 0 C3.88446678 2.58964452 6.69907021 5.64814041 8.8125 9.875 C8.92327454 11.56869615 8.97166633 13.26664606 8.98950195 14.96386719 C9.00875481 16.55627228 9.00875481 16.55627228 9.02839661 18.18084717 C9.03578354 19.33288635 9.04317047 20.48492554 9.05078125 21.671875 C9.058853 22.85340149 9.06692474 24.03492798 9.07524109 25.2522583 C9.0890917 27.75734994 9.09980946 30.26246052 9.10766602 32.76757812 C9.12486706 36.59541721 9.16874487 40.42239024 9.21289062 44.25 C9.2230183 46.68228531 9.23153417 49.11457797 9.23828125 51.546875 C9.25578934 52.69081726 9.27329742 53.83475952 9.29133606 55.0133667 C9.2742374 61.29166305 9.07160377 65.12714661 4.8125 69.875 C0.59893861 73.77254428 -1.96173412 74.71012845 -7.5625 75.125 C-12.17373139 74.80698404 -15.33263413 73.74986443 -18.63671875 70.41015625 C-22.12514918 66.32199566 -23.30900944 64.06674944 -23.36450195 58.78613281 C-23.37733719 57.72452942 -23.39017242 56.66292603 -23.40339661 55.56915283 C-23.41078354 54.41711365 -23.41817047 53.26507446 -23.42578125 52.078125 C-23.433853 50.89659851 -23.44192474 49.71507202 -23.45024109 48.4977417 C-23.4640917 45.99265006 -23.47480946 43.48753948 -23.48266602 40.98242188 C-23.49986706 37.15458279 -23.54374487 33.32760976 -23.58789062 29.5 C-23.5980183 27.06771469 -23.60653417 24.63542203 -23.61328125 22.203125 C-23.63078934 21.05918274 -23.64829742 19.91524048 -23.66633606 18.7366333 C-23.64924268 12.4602733 -23.45053926 8.61853973 -19.1875 3.875 C-13.37010796 -1.37484159 -7.3959011 -2.61031804 0 0 Z " fill="#FFFFFF" transform="translate(263.1875,27.125)"/>
</svg>
