<?xml version="1.0" encoding="UTF-8" standalone="no"?>
<!DOCTYPE svg PUBLIC "-//W3C//DTD SVG 1.1//EN" "http://www.w3.org/Graphics/SVG/1.1/DTD/svg11.dtd">
<svg xmlns="http://www.w3.org/2000/svg" version="1.1" viewBox="0.00 0.00 32.00 32.00">
<path fill="#ffffff" d="
  M 0.00 17.34
  L 0.00 14.55
  Q 0.74 9.16 4.26 4.95
  Q 4.87 4.22 5.72 4.67
  Q 5.92 4.78 6.07 4.95
  A 1.20 1.20 0.0 0 1 6.14 6.48
  Q -1.13 16.01 6.23 25.66
  A 1.00 0.99 -60.1 0 1 6.42 26.38
  Q 6.33 27.01 5.88 27.27
  Q 4.87 27.85 4.13 26.94
  Q 0.66 22.65 0.00 17.34
  Z"
/>
<path fill="#ffffff" d="
  M 32.00 14.67
  L 32.00 17.93
  Q 30.98 23.12 27.79 26.99
  Q 27.06 27.89 26.11 27.22
  Q 25.86 27.05 25.70 26.80
  Q 25.31 26.19 25.75 25.62
  Q 33.17 16.03 25.77 6.31
  A 1.00 0.99 47.9 0 1 25.83 5.03
  Q 26.07 4.77 26.38 4.61
  A 1.03 1.02 -34.6 0 1 27.65 4.84
  Q 31.26 9.03 32.00 14.67
  Z"
/>
<path fill="#ffffff" d="
  M 10.85 11.00
  Q 7.06 16.04 10.80 20.86
  A 1.03 0.99 32.2 0 1 11.00 21.68
  Q 10.83 22.59 10.25 22.73
  Q 9.33 22.96 8.75 22.20
  Q 4.09 16.10 8.73 9.71
  Q 9.28 8.95 10.12 9.37
  L 10.52 9.57
  A 0.96 0.95 -58.2 0 1 10.85 11.00
  Z"
/>
<path fill="#ffffff" d="
  M 21.24 20.88
  C 23.56 17.78 23.70 14.34 21.24 11.18
  A 1.17 1.16 -45.7 0 1 21.23 9.76
  Q 21.56 9.32 22.22 9.24
  A 1.06 1.05 -22.2 0 1 23.20 9.65
  Q 27.81 15.68 23.47 22.02
  Q 22.86 22.90 21.83 22.63
  Q 21.63 22.57 21.46 22.44
  Q 20.57 21.77 21.24 20.88
  Z"
/>
<circle fill="#ffffff" cx="16.00" cy="16.00" r="3.13"/>
</svg>
