<?xml version="1.0" encoding="UTF-8" standalone="no"?>
<!DOCTYPE svg PUBLIC "-//W3C//DTD SVG 1.1//EN" "http://www.w3.org/Graphics/SVG/1.1/DTD/svg11.dtd">
<svg xmlns="http://www.w3.org/2000/svg" version="1.1" viewBox="0.00 0.00 32.00 32.00">
<path fill="#fefefe" d="
  M 7.75 8.67
  Q 8.75 8.73 9.11 9.64
  Q 9.34 10.24 8.74 10.47
  Q 6.75 11.22 4.63 11.23
  Q 4.04 11.23 3.96 10.66
  L 3.40 6.87
  A 0.65 0.65 0.0 0 1 3.94 6.13
  Q 5.19 5.92 5.26 7.14
  A 0.35 0.35 0.0 0 0 5.87 7.36
  Q 12.03 0.79 20.32 3.51
  C 31.06 7.03 32.54 22.29 22.25 27.66
  C 13.23 32.38 2.32 25.85 2.76 15.41
  Q 2.79 14.75 3.45 14.78
  L 3.75 14.79
  Q 4.62 14.83 4.64 15.71
  C 4.74 21.93 9.17 27.01 15.42 27.28
  C 26.08 27.74 31.55 14.61 23.46 7.49
  C 18.70 3.30 12.19 3.94 7.60 8.28
  A 0.23 0.23 0.0 0 0 7.75 8.67
  Z"
/>
<path fill="#fefefe" d="
  M 21.25 17.80
  A 2.72 2.72 0.0 0 1 18.53 20.52
  L 18.13 20.52
  A 2.72 2.72 0.0 0 1 15.41 17.80
  L 15.41 14.16
  A 2.72 2.72 0.0 0 1 18.13 11.44
  L 18.53 11.44
  A 2.72 2.72 0.0 0 1 21.25 14.16
  L 21.25 17.80
  Z
  M 19.70 14.29
  A 1.27 1.27 0.0 0 0 18.43 13.02
  L 18.27 13.02
  A 1.27 1.27 0.0 0 0 17.00 14.29
  L 17.00 17.71
  A 1.27 1.27 0.0 0 0 18.27 18.98
  L 18.43 18.98
  A 1.27 1.27 0.0 0 0 19.70 17.71
  L 19.70 14.29
  Z"
/>
<path fill="#fefefe" d="
  M 11.62 13.49
  Q 10.95 13.68 10.50 13.22
  Q 10.08 12.78 10.56 12.42
  Q 11.95 11.37 13.45 11.51
  Q 13.98 11.55 13.98 12.09
  L 13.97 19.98
  Q 13.97 20.42 13.52 20.46
  L 13.06 20.50
  A 0.70 0.70 0.0 0 1 12.30 19.80
  L 12.31 14.02
  Q 12.31 13.29 11.62 13.49
  Z"
/>
</svg>
